<svg id="Layer_1" enable-background="new 0 0 500 500" viewBox="0 0 500 500" xmlns="http://www.w3.org/2000/svg"><g clip-rule="evenodd" fill-rule="evenodd"><path d="m86.143 350.594c5.682-95.016 39.71-174.589 94.682-242.751l29.231 12.068c-51.964 73.644-81.878 150.462-88.132 230.684h-35.781z" fill="#f0b16e"/><path d="m193.668 256.668h114.054v80.508h-114.054z" fill="#ffe177"/><path d="m184.723 234.304h122.999v31.309h-122.999c-8.61 0-15.654-7.044-15.654-15.655-.001-8.609 7.043-15.654 15.654-15.654z" fill="#4187b5"/><path d="m77.197 355.625h228.107v80.508h-228.107z" fill="#ffe177"/><path d="m78.963 426.072h224.575c22.447 0 40.812 18.365 40.812 40.812h-306.198c0-22.447 18.365-40.812 40.811-40.812z" fill="#4187b5"/><path d="m68.252 333.261h245.998c8.61 0 15.655 7.044 15.655 15.655 0 8.61-7.044 15.654-15.655 15.654h-245.998c-8.61 0-15.655-7.044-15.655-15.655 0-8.61 7.045-15.654 15.655-15.654z" fill="#4187b5"/><path d="m132.314 85.38c-24.795 0-46.542 13.039-58.765 32.634h117.53c-12.222-19.594-33.969-32.634-58.765-32.634z" fill="#19cfba"/><path d="m172.602 53.385c-17.533-17.533-42.131-23.69-64.629-18.477l83.106 83.106c5.213-22.498-.944-47.096-18.477-64.629z" fill="#19cfba"/><path d="m253.429 85.38c24.795 0 46.542 13.039 58.765 32.634h-117.53c12.223-19.594 33.97-32.634 58.765-32.634z" fill="#19cfba"/><path d="m213.142 53.385c17.533-17.533 42.131-23.69 64.629-18.477l-83.106 83.106c-5.214-22.498.943-47.096 18.477-64.629z" fill="#19cfba"/><ellipse cx="168.887" cy="133.669" fill="#ffe177" rx="20.127" ry="20.127" transform="matrix(.23 -.973 .973 .23 -.008 267.327)"/><ellipse cx="209.142" cy="133.669" fill="#ffe177" rx="20.127" ry="20.127" transform="matrix(.707 -.707 .707 .707 -33.262 187.036)"/><circle cx="200.196" cy="102.36" fill="#ffe177" r="20.127"/><path d="m310.23 333.467c23.852 6.391 38.139 31.136 31.747 54.988l-20.37 78.429h-69.167l-31.282-8.674c-23.852-6.391-38.138-31.136-31.747-54.988 8.382-31.284 36.116-36.804 63.539-29.456 7.349-27.424 25.997-48.681 57.28-40.299z" fill="#19cfba"/><path d="m291.886 225.359 84.981-84.304 84.981 84.304v225.119c0 9.023-7.382 16.406-16.406 16.406h-153.556z" fill="#4187b5"/><g fill="#ffe177"><path d="m419.358 466.884h-84.981v-65.073c0-3.57 2.92-6.49 6.49-6.49h72.002c3.57 0 6.49 2.92 6.49 6.49v65.073z"/><path d="m347.795 238.777c8.61 0 15.655 7.044 15.655 15.654v20.127h-31.31v-20.127c0-8.61 7.044-15.654 15.655-15.654z"/><path d="m405.94 238.777c8.61 0 15.654 7.044 15.654 15.654v20.127h-31.309v-20.127c0-8.61 7.044-15.654 15.655-15.654z"/><path d="m347.795 307.429c8.61 0 15.655 7.044 15.655 15.654v20.127h-31.31v-20.127c0-8.61 7.044-15.654 15.655-15.654z"/><path d="m405.94 307.429c8.61 0 15.654 7.044 15.654 15.654v20.127h-31.309v-20.127c0-8.61 7.044-15.654 15.655-15.654z"/></g><path d="m224.977 303.7c-3.743 0-6.778-3.035-6.778-6.778s3.035-6.778 6.778-6.778h31.309c3.743 0 6.778 3.035 6.778 6.778s-3.035 6.778-6.778 6.778zm-116.471 98.956c-3.743 0-6.778-3.035-6.778-6.778s3.035-6.778 6.778-6.778h31.309c3.743 0 6.778 3.035 6.778 6.778s-3.035 6.778-6.778 6.778z" fill="#19cfba"/></g></svg>