<?xml version="1.0"?>
<svg xmlns="http://www.w3.org/2000/svg" id="Layer_1" data-name="Layer 1" viewBox="0 0 512 512" width="512" height="512"><title>Varified locationmap</title><path d="M166.382,298.123c-16.769-17.861-29.09-37.385-36.621-58.028a157.411,157.411,0,0,1-9.528-64.786A167.653,167.653,0,0,1,168.633,68.1a155.511,155.511,0,0,1,93.046-45.071,159.491,159.491,0,0,0-18-1.026A155.7,155.7,0,0,0,132.626,68.1a167.653,167.653,0,0,0-48.4,107.212A157.393,157.393,0,0,0,93.753,240.1c7.531,20.643,19.853,40.167,36.621,58.028l113.3,120.682,18-19.177Z" style="fill:#d4e1f4"/><path d="M393.8,227.368c1.236.2,2.468.407,3.69.642.113-.4.217-.807.327-1.21Q395.8,227.048,393.8,227.368Z" style="fill:#d4e1f4"/><path d="M439.858,311.139c0-49.541-41.34-89.846-92.156-89.846s-92.156,40.305-92.156,89.846a88.5,88.5,0,0,0,27.85,64.288V491a6,6,0,0,0,9.04,5.173L347.7,463.7l55.268,32.474A6,6,0,0,0,412.01,491V375.426A88.5,88.5,0,0,0,439.858,311.139Zm-172.312,0c0-42.924,35.958-77.846,80.156-77.846s80.156,34.922,80.156,77.846a76.551,76.551,0,0,1-24.644,56.075,6.024,6.024,0,0,0-2.2,1.994,81.737,81.737,0,0,1-106.612,0,6.016,6.016,0,0,0-2.208-2A76.555,76.555,0,0,1,267.546,311.139ZM400.01,480.516l-49.268-28.949a6,6,0,0,0-6.08,0L295.4,480.516v-95.45a93.9,93.9,0,0,0,104.614,0Z" style="fill:#1ae5be"/><path d="M296.711,302.755l25.735,18.195-9.809,29.379a6,6,0,0,0,9.155,6.8l25.91-18.32,25.91,18.32a6,6,0,0,0,9.156-6.8l-9.809-29.379,25.735-18.195a6,6,0,0,0-3.464-10.9H363.244l-9.85-29.5a6,6,0,0,0-11.383,0l-9.851,29.5H300.175a6,6,0,0,0-3.464,10.9Zm39.771,1.1a6,6,0,0,0,5.692-4.1L347.7,283.2l5.528,16.559a6,6,0,0,0,5.692,4.1h17.43l-13.959,9.87a6,6,0,0,0-2.228,6.8l5.419,16.232-14.418-10.195a6,6,0,0,0-6.928,0L329.82,336.755l5.42-16.231a6,6,0,0,0-2.227-6.8l-13.959-9.87Z" style="fill:#1ae5be"/><path d="M240.322,429.64h-.033a6,6,0,0,1-4.341-1.894l-115.106-122.6c-17.515-18.655-30.411-39.122-38.334-60.834A165.782,165.782,0,0,1,72.5,176.07,175.906,175.906,0,0,1,123.285,63.584a165.261,165.261,0,0,1,234.074,0A175.9,175.9,0,0,1,408.148,176.07a164.912,164.912,0,0,1-7.369,60.432,6,6,0,1,1-11.453-3.582,152.984,152.984,0,0,0,6.85-56.049A163.906,163.906,0,0,0,348.858,72.054a153.26,153.26,0,0,0-217.072,0A163.9,163.9,0,0,0,84.469,176.871a153.866,153.866,0,0,0,9.312,63.322c7.364,20.181,19.411,39.269,35.809,56.735l110.781,118,44.7-46.56a6,6,0,1,1,8.657,8.311L244.65,427.8A6,6,0,0,1,240.322,429.64Zm0-178.363c-41.3,0-74.9-34.431-74.9-76.753s33.6-76.753,74.9-76.753,74.9,34.432,74.9,76.753S281.624,251.277,240.322,251.277Zm0-141.506c-34.684,0-62.9,29.048-62.9,64.753s28.218,64.753,62.9,64.753,62.9-29.048,62.9-64.753S275.007,109.771,240.322,109.771Z" style="fill:#0635c9"/></svg>
