<svg id="Layer_1" enable-background="new 0 0 66 66" viewBox="0 0 66 66" xmlns="http://www.w3.org/2000/svg"><g><g><path d="m61.45 25.6v27.15c0 1.82-1.47 3.29-3.29 3.29h-23.63c.63-.77 1.01-1.75 1.01-2.83v-29.9c0-.34-.04-.67-.11-.99h22.74c1.82 0 3.28 1.47 3.28 3.28z" fill="#04b5a4"/></g><g><path d="m61.45 25.6v7.07h-25.91v-9.37c0-.34-.04-.67-.11-.99h22.74c1.82.01 3.28 1.48 3.28 3.29z" fill="#014eb1"/></g><g><path d="m42.21 37.08v2.98c0 .49-.4.89-.89.89h-2.99c-.49 0-.89-.4-.89-.89v-2.98c0-.49.4-.89.89-.89h2.99c.5 0 .89.4.89.89z" fill="#e5e8ff"/></g><g><path d="m49.98 37.08v2.98c0 .49-.4.89-.89.89h-2.99c-.49 0-.89-.4-.89-.89v-2.98c0-.49.4-.89.89-.89h2.99c.5 0 .89.4.89.89z" fill="#e5e8ff"/></g><g><path d="m57.76 37.08v2.98c0 .49-.4.89-.89.89h-2.99c-.49 0-.89-.4-.89-.89v-2.98c0-.49.4-.89.89-.89h2.99c.49 0 .89.4.89.89z" fill="#e5e8ff"/></g><g><path d="m42.21 44.53v2.98c0 .49-.4.89-.89.89h-2.99c-.49 0-.89-.4-.89-.89v-2.98c0-.49.4-.89.89-.89h2.99c.5 0 .89.4.89.89z" fill="#e5e8ff"/></g><g><path d="m49.98 44.53v2.98c0 .49-.4.89-.89.89h-2.99c-.49 0-.89-.4-.89-.89v-2.98c0-.49.4-.89.89-.89h2.99c.5 0 .89.4.89.89z" fill="#e5e8ff"/></g><g><path d="m57.76 44.53v2.98c0 .49-.4.89-.89.89h-2.99c-.48-.01-.88-.4-.88-.89v-2.98c0-.49.4-.89.89-.89h2.99c.48 0 .88.4.88.89z" fill="#e5e8ff"/></g><g><g><g><path d="m13.86 7.71c.04.08.08.16.12.23-1.28.16-2.26 1.25-2.26 2.56v8.34h-2.93v-8.34c0-2.93 2.29-5.32 5.18-5.51-.09.16-.16.33-.21.51-.02.04-.03.08-.04.12-.02.08-.04.16-.06.24-.02.09-.03.17-.04.26-.01.11-.02.21-.02.32s.01.22.02.32.02.21.05.32c.04.23.11.43.19.63z" fill="#e5e8ff"/></g><g><path d="m31.3 10.51v8.34h-2.93v-8.34c0-1.31-.98-2.4-2.26-2.56.04-.08.08-.15.12-.23.08-.2.15-.4.19-.62.02-.11.04-.21.05-.32s.02-.21.02-.32-.01-.22-.02-.32c-.01-.09-.02-.17-.04-.26-.02-.08-.04-.16-.06-.24-.01-.04-.02-.08-.04-.12-.04-.18-.11-.35-.2-.52 2.88.18 5.17 2.58 5.17 5.51z" fill="#e5e8ff"/></g></g><g><g><path d="m23.33 9.61h-6.57c-1.74 0-3.15-1.41-3.15-3.15s1.41-3.15 3.15-3.15h6.57c1.74 0 3.15 1.41 3.15 3.15s-1.41 3.15-3.15 3.15z" fill="#242b2b"/></g></g></g><g><path d="m35.54 23.31v29.91c0 2.46-2 4.46-4.46 4.46h-22.07c-2.46 0-4.46-2-4.46-4.46v-29.91c0-2.46 2-4.46 4.46-4.46h22.07c2.46 0 4.46 2 4.46 4.46z" fill="#ffd24f"/></g><g><path d="m35.54 23.31v4.04c-2.53 6.07-8.51 10.34-15.5 10.34-6.98 0-12.97-4.27-15.49-10.34v-4.04c0-2.46 2-4.46 4.46-4.46h22.07c2.46 0 4.46 2 4.46 4.46z" fill="#ff4148"/></g><g><g><path d="m13.8 60.19c0 .69-.28 1.32-.74 1.77-.45.45-1.08.74-1.77.74-1.39 0-2.51-1.12-2.51-2.51 0-.69.28-1.32.74-1.77.45-.45 1.08-.74 1.77-.74s1.32.28 1.77.74c.46.45.74 1.08.74 1.77z" fill="#242b2b"/></g><g><path d="m31.3 60.19c0 .69-.28 1.32-.74 1.77-.45.45-1.08.74-1.77.74-1.39 0-2.51-1.12-2.51-2.51 0-.69.28-1.32.74-1.77.45-.45 1.08-.74 1.77-.74s1.32.28 1.77.74c.46.45.74 1.08.74 1.77z" fill="#242b2b"/></g></g><g><path d="m24.49 31.73c0 1.62-1.99 2.92-4.45 2.92s-4.45-1.3-4.45-2.92c0-1.61 1.99-2.91 4.45-2.91s4.45 1.3 4.45 2.91z" fill="#e5e8ff"/></g><g><path d="m45.97 27.5c0 1.66-1.34 3-3 3s-3-1.34-3-3 1.34-3 3-3 3 1.34 3 3z" fill="#fff"/></g><g><path d="m56.78 27.5c0 1.66-1.34 3-3 3s-3-1.34-3-3 1.34-3 3-3c1.65 0 3 1.34 3 3z" fill="#fff"/></g><g><path d="m44.24 21.56v5.9c0 .71-.57 1.28-1.27 1.28-.35 0-.67-.14-.91-.37-.23-.23-.37-.55-.37-.91v-5.9c0-.71.57-1.28 1.28-1.28.35 0 .67.15.9.37.22.24.37.56.37.91z" fill="#ffd24f"/></g><g><path d="m55.05 21.56v5.9c0 .71-.57 1.28-1.27 1.28-.35 0-.67-.14-.91-.37-.23-.23-.37-.55-.37-.91v-5.9c0-.71.57-1.28 1.28-1.28.35 0 .67.15.9.37.22.24.37.56.37.91z" fill="#ffd24f"/></g></g></svg>